<?xml version="1.0" ?>
<!-- Uploaded to: SVG Repo, www.svgrepo.com, Generator: SVG Repo Mixer Tools -->
<svg width="800px" height="800px" viewBox="0 0 25 25" xmlns="http://www.w3.org/2000/svg">
<defs>
<style>.cls-1{fill:#ff7900;}</style>
</defs>
<g data-name="24 hour 2" id="_24_hour_2">
<path class="cls-1" d="M12.5,1A11.5,11.5,0,1,0,24,12.5,11.51,11.51,0,0,0,12.5,1Zm0,22A10.5,10.5,0,1,1,23,12.5,10.51,10.51,0,0,1,12.5,23Z"/>
<path class="cls-1" d="M11.56,14.75H8.15l2.1-2.13a7,7,0,0,0,.77-.77,2.9,2.9,0,0,0,.47-.78,2.26,2.26,0,0,0,.17-.88,2.46,2.46,0,0,0-.26-1.12,2,2,0,0,0-.82-.83,2.85,2.85,0,0,0-1.42-.31,2.75,2.75,0,0,0-1.11.21,2.38,2.38,0,0,0-.8.55,2.44,2.44,0,0,0-.48.76,2.53,2.53,0,0,0-.18.84.21.21,0,0,0,.07.15.23.23,0,0,0,.16.06h.57a.32.32,0,0,0,.17-.06.27.27,0,0,0,.12-.19,2,2,0,0,1,.24-.71,1.22,1.22,0,0,1,.49-.49,1.49,1.49,0,0,1,.75-.18,1.24,1.24,0,0,1,1.39,1.36,1.55,1.55,0,0,1-.13.63,2.41,2.41,0,0,1-.46.64c-.22.22-.51.49-.88.8L6.76,14.62a1,1,0,0,0-.22.26.52.52,0,0,0-.06.22v.35a.22.22,0,0,0,.08.18.21.21,0,0,0,.18.07h4.82a.25.25,0,0,0,.19-.07.21.21,0,0,0,.07-.18V15a.21.21,0,0,0-.07-.18A.25.25,0,0,0,11.56,14.75Z"/>
<path class="cls-1" d="M18.43,12.93h-1V8.3a.24.24,0,0,0-.25-.25H16.4a.46.46,0,0,0-.4.18l-3.28,4.63a.7.7,0,0,0-.1.19,1.15,1.15,0,0,0,0,.14v.44a.24.24,0,0,0,.07.18.29.29,0,0,0,.18.07h3.54v1.57a.25.25,0,0,0,.07.18.24.24,0,0,0,.18.07h.55a.24.24,0,0,0,.18-.07.21.21,0,0,0,.07-.18V13.88h1a.29.29,0,0,0,.18-.07.24.24,0,0,0,.07-.18v-.45a.23.23,0,0,0-.07-.18A.25.25,0,0,0,18.43,12.93Zm-2,0H13.77L16.4,9.2Z"/>
</g>
</svg>